<?xml version="1.0" encoding="utf-8"?>
<svg width="800px" height="800px" viewBox="0 0 24 24" fill="none" xmlns="http://www.w3.org/2000/svg">
<path d="M12 2C6.477 2 2 6.477 2 12s4.477 10 10 10 10-4.477 10-10S17.523 2 12 2zm4.586 14.424c-.18.295-.563.387-.857.207-2.35-1.434-5.305-1.76-8.786-.963-.335.077-.67-.13-.746-.463-.077-.334.13-.67.463-.746 3.808-.87 7.076-.496 9.712 1.115.293.18.386.562.206.857l.008-.007zm1.22-2.716c-.226.367-.706.482-1.073.257-2.687-1.652-6.785-2.13-9.965-1.166-.413.127-.848-.106-.975-.518-.127-.413.106-.848.518-.975 3.632-1.102 8.147-.568 11.234 1.328.366.226.48.707.256 1.074h.005zm.105-2.835C14.692 8.95 9.375 8.775 6.297 9.71c-.493.15-1.013-.13-1.163-.624-.15-.495.13-1.016.625-1.167 3.532-1.073 9.404-.865 13.115 1.338.445.264.59.838.327 1.282-.264.443-.838.59-1.282.325l-.008.009z" fill="#000000"/>
</svg>

